<svg xmlns="http://www.w3.org/2000/svg" version="1.0" width="411" height="502" preserveAspectRatio="xMidYMid meet" style=""><rect id="backgroundrect" width="100%" height="100%" x="0" y="0" fill="none" stroke="none"/>


<g class="currentLayer" style=""><title>Layer 1</title>
<path d="M124.50000185519457,48.19999323785305 c3.500000052154064,37.90000056475401 8.00000011920929,57.80000086128712 17.100000254809856,76.3000011369586 c5.4000000804662704,11.10000016540289 12.800000190734863,20.200000301003456 21.700000323355198,27.10000040382147 c6.100000090897083,4.6000000685453415 19.500000290572643,12.000000178813934 20.200000301003456,11.200000166893005 c0.800000011920929,-0.800000011920929 2.500000037252903,-18.100000269711018 2.500000037252903,-24.70000036805868 c0,-10.500000156462193 -1.600000023841858,-19.000000283122063 -5.100000075995922,-28.10000041872263 c-3.200000047683716,-8.300000123679638 -12.000000178813934,-22.500000335276127 -19.000000283122063,-30.500000454485416 c-3.7000000551342964,-4.100000061094761 -3.9000000581145287,-4.6000000685453415 -1.4000000208616257,-2.8000000417232513 c12.800000190734863,9.200000137090683 23.000000342726707,20.300000302493572 27.900000415742397,30.600000455975533 c7.500000111758709,15.600000232458115 7.800000116229057,20.40000030398369 6.200000092387199,81.00000120699406 l-0.9000000134110451,32.70000048726797 l-4.100000061094761,1.1000000163912773 c-16.100000239908695,4.100000061094761 -27.500000409781933,13.200000196695328 -34.20000050961971,27.3000004068017 c-8.400000125169754,17.600000262260437 -6.100000090897083,36.90000054985285 5.900000087916851,50.20000074803829 c6.400000095367432,7.1000001057982445 15.600000232458115,13.000000193715096 36.10000053793192,23.000000342726707 c12.700000189244747,6.200000092387199 19.200000286102295,10.000000149011612 22.90000034123659,13.40000019967556 c5.000000074505806,4.6000000685453415 5.100000075995922,4.800000071525574 5.500000081956387,11.10000016540289 c0.20000000298023224,4.90000007301569 -0.10000000149011612,7.200000107288361 -1.600000023841858,9.900000147521496 c-2.500000037252903,4.700000070035458 -10.400000154972076,10.000000149011612 -14.800000220537186,10.000000149011612 l-3.400000050663948,0 l0,-15.400000229477882 l0,-15.300000227987766 l-5.600000083446503,-2.2000000327825546 c-3.1000000461935997,-1.1000000163912773 -5.800000086426735,-2.1000000312924385 -6.000000089406967,-2.1000000312924385 c-0.20000000298023224,0 -0.4000000059604645,8.200000122189522 -0.4000000059604645,18.100000269711018 l0,18.200000271201134 l-4.200000062584877,-0.7000000104308128 c-6.800000101327896,-1.0000000149011612 -13.40000019967556,-3.500000052154064 -15.400000229477882,-5.700000084936619 c-1.8000000268220901,-2.0000000298023224 -1.8000000268220901,-2.1000000312924385 2.400000035762787,-5.600000083446503 c5.4000000804662704,-4.400000065565109 7.200000107288361,-8.00000011920929 7.200000107288361,-13.800000205636024 c0,-13.800000205636024 -13.90000020712614,-22.40000033378601 -26.50000039488077,-16.600000247359276 c-13.600000202655792,6.200000092387199 -15.500000230967999,24.100000359117985 -3.9000000581145287,37.000000551342964 c7.1000001057982445,7.900000117719173 25.80000038444996,16.100000239908695 36.6000005453825,16.100000239908695 l3.8000000566244125,0 l0,9.00000013411045 l0,9.00000013411045 l6.000000089406967,0 l5.900000087916851,0 l0.30000000447034836,-8.800000131130219 l0.30000000447034836,-8.700000129640102 l5.100000075995922,-0.6000000089406967 c15.900000236928463,-2.0000000298023224 31.900000475347042,-11.800000175833702 39.20000058412552,-24.00000035762787 c10.900000162422657,-18.200000271201134 8.200000122189522,-44.80000066757202 -5.900000087916851,-58.900000877678394 c-6.000000089406967,-6.000000089406967 -13.90000020712614,-10.700000159442425 -33.100000493228436,-19.60000029206276 c-17.00000025331974,-7.800000116229057 -23.000000342726707,-12.000000178813934 -27.200000405311584,-18.700000278651714 c-5.300000078976154,-8.50000012665987 -3.300000049173832,-18.500000275671482 4.500000067055225,-23.100000344216824 c4.700000070035458,-2.8000000417232513 4.90000007301569,-2.400000035762787 4.90000007301569,11.000000163912773 l0,12.500000186264515 l5.500000081956387,2.500000037252903 c3.1000000461935997,1.3000000193715096 5.800000086426735,2.400000035762787 6.000000089406967,2.400000035762787 c0.30000000447034836,0 0.5000000074505806,-6.800000101327896 0.5000000074505806,-15.000000223517418 l0,-15.000000223517418 l4.300000064074993,0 c4.500000067055225,0 10.700000159442425,3.1000000461935997 10.700000159442425,5.300000078976154 c0,0.800000011920929 -1.3000000193715096,3.8000000566244125 -3.0000000447034836,6.800000101327896 c-4.200000062584877,7.700000114738941 -3.8000000566244125,14.200000211596489 1.3000000193715096,19.700000293552876 c3.6000000536441803,3.9000000581145287 7.500000111758709,5.4000000804662704 13.800000205636024,5.300000078976154 c11.500000171363354,0 18.200000271201134,-6.500000096857548 18.0000002682209,-17.600000262260437 c-0.10000000149011612,-14.400000214576721 -15.20000022649765,-27.500000409781933 -35.10000052303076,-30.600000455975533 c-11.200000166893005,-1.700000025331974 -10.400000154972076,-1.0000000149011612 -9.600000143051147,-8.900000132620335 c0.9000000134110451,-9.100000135600567 3.9000000581145287,-19.60000029206276 7.700000114738941,-27.3000004068017 c3.8000000566244125,-7.500000111758709 13.700000204145908,-18.0000002682209 20.200000301003456,-21.300000317394733 c4.700000070035458,-2.400000035762787 19.60000029206276,-6.800000101327896 20.40000030398369,-6.000000089406967 c0.20000000298023224,0.20000000298023224 -3.1000000461935997,2.3000000342726707 -7.400000110268593,4.6000000685453415 c-14.900000222027302,8.00000011920929 -23.20000034570694,16.20000024139881 -27.900000415742397,27.80000041425228 c-1.9000000283122063,4.6000000685453415 -2.1000000312924385,5.800000086426735 -0.9000000134110451,6.000000089406967 c3.1000000461935997,0.7000000104308128 17.80000026524067,-2.9000000432133675 24.100000359117985,-5.800000086426735 c12.10000018030405,-5.800000086426735 24.900000371038914,-20.700000308454037 29.90000044554472,-34.900000520050526 l1.4000000208616257,-4.000000059604645 l-7.700000114738941,-2.500000037252903 c-10.400000154972076,-3.200000047683716 -17.700000263750553,-4.000000059604645 -25.300000376999378,-2.600000038743019 c-16.800000250339508,3.1000000461935997 -25.900000385940075,13.100000195205212 -34.400000512599945,37.80000056326389 c-1.9000000283122063,5.4000000804662704 -3.400000050663948,8.800000131130219 -3.400000050663948,7.700000114738941 c-0.20000000298023224,-5.700000084936619 3.6000000536441803,-21.90000032633543 8.900000132620335,-37.500000558793545 c6.900000102818012,-20.200000301003456 8.600000128149986,-29.60000044107437 7.000000104308128,-39.40000058710575 c-1.8000000268220901,-11.400000169873238 -4.400000065565109,-17.80000026524067 -11.300000168383121,-28.10000041872263 c-16.20000024139881,-23.900000356137753 -43.60000064969063,-39.1000005826354 -79.50000118464231,-43.900000654160976 l-4.200000062584877,-0.6000000089406967 l0.5000000074505806,5.200000077486038 z" id="svg_2" fill="#ed8f03" fill-opacity="1" class=""/>
<path d="M54.30000080913305,428.99999891221523 c-1.8000000268220901,1.1000000163912773 -3.500000052154064,3.1000000461935997 -3.9000000581145287,4.6000000685453415 c-1.2000000178813934,4.700000070035458 0.7000000104308128,7.600000113248825 8.400000125169754,12.700000189244747 c8.50000012665987,5.600000083446503 10.900000162422657,8.600000128149986 9.200000137090683,11.60000017285347 c-1.9000000283122063,3.6000000536441803 -7.700000114738941,3.8000000566244125 -15.20000022649765,0.7000000104308128 c-1.1000000163912773,-0.5000000074505806 -2.0000000298023224,-0.10000000149011612 -2.8000000417232513,1.3000000193715096 c-1.0000000149011612,2.0000000298023224 -0.7000000104308128,2.3000000342726707 3.200000047683716,4.100000061094761 c7.300000108778477,3.300000049173832 15.600000232458115,2.0000000298023224 19.200000286102295,-3.1000000461935997 c3.9000000581145287,-5.600000083446503 1.1000000163912773,-11.200000166893005 -8.800000131130219,-17.400000259280205 c-7.900000117719173,-4.90000007301569 -9.200000137090683,-6.500000096857548 -7.600000113248825,-9.500000141561031 c1.3000000193715096,-2.500000037252903 5.500000081956387,-3.300000049173832 9.700000144541264,-1.9000000283122063 c2.9000000432133675,0.9000000134110451 3.7000000551342964,0.9000000134110451 4.400000065565109,-0.20000000298023224 c1.4000000208616257,-2.2000000327825546 1.1000000163912773,-2.9000000432133675 -1.700000025331974,-3.9000000581145287 c-4.100000061094761,-1.600000023841858 -10.600000157952309,-1.2000000178813934 -14.100000210106373,1.0000000149011612 z" id="svg_3" fill="#ffffff" fill-opacity="1" class=""/>
<path d="M78.00000116229057,429.4999989196658 c0,2.400000035762787 0.30000000447034836,2.500000037252903 5.500000081956387,2.500000037252903 l5.500000081956387,0 l0,16.50000024586916 l0,16.50000024586916 l2.500000037252903,0 l2.500000037252903,0 l0,-16.50000024586916 l0,-16.50000024586916 l5.600000083446503,0 c5.200000077486038,0 5.500000081956387,-0.10000000149011612 5.200000077486038,-2.3000000342726707 c-0.30000000447034836,-2.1000000312924385 -0.7000000104308128,-2.2000000327825546 -13.500000201165676,-2.500000037252903 l-13.300000198185444,-0.30000000447034836 l0,2.600000038743019 z" id="svg_4" fill="#ffffff" fill-opacity="1" class=""/>
<path d="M119.80000178515911,428.99999891221523 c-13.200000196695328,7.000000104308128 -13.300000198185444,28.10000041872263 -0.10000000149011612,34.60000051558018 c5.000000074505806,2.500000037252903 13.600000202655792,2.500000037252903 18.600000277161598,0 c10.000000149011612,-5.000000074505806 13.200000196695328,-20.10000029951334 6.100000090897083,-29.300000436604023 c-5.4000000804662704,-7.000000104308128 -16.700000248849392,-9.400000140070915 -24.600000366568565,-5.300000078976154 zm14.500000216066837,3.400000050663948 c8.600000128149986,3.6000000536441803 11.60000017285347,13.500000201165676 6.70000009983778,22.500000335276127 c-3.0000000447034836,5.800000086426735 -13.40000019967556,8.00000011920929 -19.700000293552876,4.100000061094761 c-7.800000116229057,-4.700000070035458 -9.200000137090683,-16.900000251829624 -2.600000038743019,-23.20000034570694 c4.90000007301569,-4.700000070035458 10.000000149011612,-5.800000086426735 15.600000232458115,-3.400000050663948 z" id="svg_5" fill="#ffffff" fill-opacity="1" class=""/>
<path d="M166.50000248104334,428.39999890327454 c-4.300000064074993,2.0000000298023224 -7.400000110268593,5.300000078976154 -9.600000143051147,10.000000149011612 c-7.500000111758709,16.50000024586916 9.300000138580799,33.100000493228436 25.900000385940075,25.600000381469727 c4.300000064074993,-2.0000000298023224 4.800000071525574,-2.600000038743019 3.300000049173832,-4.800000071525574 c-0.7000000104308128,-1.1000000163912773 -1.4000000208616257,-1.1000000163912773 -4.100000061094761,0.30000000447034836 c-4.700000070035458,2.500000037252903 -13.100000195205212,1.600000023841858 -16.600000247359276,-1.600000023841858 c-8.200000122189522,-7.700000114738941 -6.900000102818012,-19.700000293552876 2.7000000402331352,-24.70000036805868 c4.800000071525574,-2.500000037252903 10.400000154972076,-2.400000035762787 14.600000217556953,0.4000000059604645 c2.0000000298023224,1.3000000193715096 2.3000000342726707,1.2000000178813934 3.300000049173832,-0.6000000089406967 c0.9000000134110451,-1.600000023841858 0.6000000089406967,-2.2000000327825546 -1.600000023841858,-3.7000000551342964 c-3.500000052154064,-2.3000000342726707 -13.90000020712614,-2.8000000417232513 -17.900000266730785,-0.9000000134110451 z" id="svg_6" fill="#ffffff" fill-opacity="1" class=""/>
<path d="M195.00000290572643,445.999999165535 c0,18.30000027269125 0.10000000149011612,19.000000283122063 2.0000000298023224,19.000000283122063 c1.700000025331974,0 2.0000000298023224,-0.7000000104308128 2.0000000298023224,-4.400000065565109 c0,-3.8000000566244125 2.2000000327825546,-8.100000120699406 6.500000096857548,-12.400000184774399 c0.10000000149011612,-0.20000000298023224 2.7000000402331352,3.500000052154064 5.600000083446503,8.200000122189522 c4.700000070035458,7.500000111758709 5.800000086426735,8.600000128149986 8.200000122189522,8.600000128149986 c2.0000000298023224,0 2.600000038743019,-0.4000000059604645 2.1000000312924385,-1.3000000193715096 c-0.4000000059604645,-0.6000000089406967 -3.400000050663948,-5.4000000804662704 -6.600000098347664,-10.500000156462193 l-5.900000087916851,-9.400000140070915 l5.800000086426735,-7.1000001057982445 c7.900000117719173,-9.600000143051147 8.00000011920929,-9.700000144541264 4.6000000685453415,-9.700000144541264 c-2.3000000342726707,0 -4.100000061094761,1.600000023841858 -10.800000160932541,10.000000149011612 c-4.400000065565109,5.500000081956387 -8.300000123679638,10.000000149011612 -8.700000129640102,10.000000149011612 c-0.5000000074505806,0 -0.800000011920929,-4.500000067055225 -0.800000011920929,-10.000000149011612 c0,-9.300000138580799 -0.10000000149011612,-10.000000149011612 -2.0000000298023224,-10.000000149011612 c-1.9000000283122063,0 -2.0000000298023224,0.7000000104308128 -2.0000000298023224,19.000000283122063 z" id="svg_7" fill="#ffffff" fill-opacity="1" class=""/>
<path d="M240.7000035867095,429.9999989271164 c-0.800000011920929,1.9000000283122063 -4.500000067055225,10.400000154972076 -8.100000120699406,18.80000028014183 c-3.6000000536441803,8.50000012665987 -6.600000098347664,15.600000232458115 -6.600000098347664,15.800000235438347 c0,0.20000000298023224 1.0000000149011612,0.4000000059604645 2.3000000342726707,0.4000000059604645 c1.700000025331974,0 2.8000000417232513,-1.0000000149011612 4.000000059604645,-3.500000052154064 l1.700000025331974,-3.500000052154064 l8.50000012665987,0 l8.50000012665987,0 l1.700000025331974,3.500000052154064 c1.2000000178813934,2.500000037252903 2.3000000342726707,3.500000052154064 4.000000059604645,3.500000052154064 c1.3000000193715096,0 2.3000000342726707,-0.20000000298023224 2.3000000342726707,-0.4000000059604645 c0,-0.6000000089406967 -14.600000217556953,-34.00000050663948 -15.800000235438347,-36.200000539422035 c-0.9000000134110451,-1.600000023841858 -1.2000000178813934,-1.4000000208616257 -2.500000037252903,1.600000023841858 zm5.100000075995922,15.70000023394823 l3.1000000461935997,7.300000108778477 l-6.500000096857548,0 l-6.400000095367432,0 l1.600000023841858,-3.8000000566244125 c0.800000011920929,-2.0000000298023224 2.3000000342726707,-5.4000000804662704 3.1000000461935997,-7.500000111758709 c0.9000000134110451,-2.1000000312924385 1.700000025331974,-3.7000000551342964 1.8000000268220901,-3.500000052154064 c0.20000000298023224,0.20000000298023224 1.700000025331974,3.6000000536441803 3.300000049173832,7.500000111758709 z" id="svg_8" fill="#ffffff" fill-opacity="1" class=""/>
<path d="M265.0000039488077,445.999999165535 l0,19.000000283122063 l2.500000037252903,0 l2.500000037252903,0 l0,-12.600000187754631 l0,-12.700000189244747 l6.600000098347664,8.700000129640102 c3.6000000536441803,4.700000070035458 7.000000104308128,8.300000123679638 7.500000111758709,8.00000011920929 c0.5000000074505806,-0.30000000447034836 3.7000000551342964,-4.200000062584877 7.1000001057982445,-8.700000129640102 l6.3000000938773155,-8.200000122189522 l0.30000000447034836,12.700000189244747 c0.20000000298023224,12.000000178813934 0.4000000059604645,12.800000190734863 2.2000000327825546,12.800000190734863 c1.9000000283122063,0 2.0000000298023224,-0.800000011920929 2.0000000298023224,-19.000000283122063 c0,-10.500000156462193 -0.10000000149011612,-19.000000283122063 -0.30000000447034836,-19.000000283122063 c-0.20000000298023224,0 -4.200000062584877,4.90000007301569 -8.800000131130219,10.900000162422657 c-4.6000000685453415,6.100000090897083 -8.700000129640102,11.000000163912773 -9.100000135600567,11.000000163912773 c-0.4000000059604645,0.10000000149011612 -4.6000000685453415,-4.90000007301569 -9.300000138580799,-10.900000162422657 c-4.700000070035458,-6.100000090897083 -8.800000131130219,-11.000000163912773 -9.100000135600567,-11.000000163912773 c-0.20000000298023224,0 -0.4000000059604645,8.50000012665987 -0.4000000059604645,19.000000283122063 z" id="svg_9" fill="#ffffff" fill-opacity="1" class=""/>
<path d="M312.0000046491623,445.999999165535 c0,18.30000027269125 0.10000000149011612,19.000000283122063 2.0000000298023224,19.000000283122063 c1.9000000283122063,0 2.0000000298023224,-0.7000000104308128 2.0000000298023224,-19.000000283122063 c0,-18.30000027269125 -0.10000000149011612,-19.000000283122063 -2.0000000298023224,-19.000000283122063 c-1.9000000283122063,0 -2.0000000298023224,0.7000000104308128 -2.0000000298023224,19.000000283122063 z" id="svg_10" fill="#ffffff" fill-opacity="1" class=""/>
<path d="M326.00000485777855,445.999999165535 l0,19.000000283122063 l11.500000171363354,0 c10.800000160932541,0 11.500000171363354,-0.10000000149011612 11.500000171363354,-2.0000000298023224 c0,-1.8000000268220901 -0.800000011920929,-2.0000000298023224 -9.200000137090683,-2.2000000327825546 l-9.300000138580799,-0.30000000447034836 l-0.30000000447034836,-7.300000108778477 l-0.30000000447034836,-7.200000107288361 l6.100000090897083,0 c5.700000084936619,0 6.000000089406967,-0.10000000149011612 6.000000089406967,-2.500000037252903 c0,-2.400000035762787 -0.30000000447034836,-2.500000037252903 -6.000000089406967,-2.500000037252903 l-6.000000089406967,0 l0,-4.500000067055225 l0,-4.500000067055225 l9.00000013411045,0 c8.900000132620335,0 9.00000013411045,0 9.00000013411045,-2.500000037252903 l0,-2.500000037252903 l-11.000000163912773,0 l-11.000000163912773,0 l0,19.000000283122063 z" id="svg_11" fill="#ffffff" fill-opacity="1" class=""/>
</g></svg>